<svg width="200px" height="200px" viewBox="0 0 200 200" role="img" xmlns="http://www.w3.org/2000/svg"><title>BMW icon</title><path d="M100 0C44.775 0 0 44.775 0 100s44.775 100 100 100 100 -44.775 100 -100S155.225 0 100 0m0 6.5C151.633 6.5 193.492 48.358 193.492 100c0 51.633 -41.85 93.492 -93.492 93.492S6.508 151.633 6.508 100 48.367 6.5 100 6.5m-5.65 5.25q-4.117 0.183 -8.267 0.65l-0.892 24.533a83.333 83.333 0 0 1 5.917 -0.783l0.583 -16.567 -0.108 -1.142 0.358 1.083 5.533 12.408h5.05l5.533 -12.4 0.333 -1.092 -0.083 1.142 0.583 16.567c1.933 0.183 3.942 0.45 5.917 0.783l-0.908 -24.533a125 125 0 0 0 -8.267 -0.65l-5.442 13.542 -0.192 1 -0.192 -1zm55.8 15.2 -12.858 20.233c1.625 1.25 3.767 3.092 5.142 4.35l12.108 -6.283 0.767 -0.575 -0.575 0.783 -6.267 12.108c1.358 1.458 3.317 3.817 4.417 5.25l20.25 -12.867a133.333 133.333 0 0 0 -3.833 -4.733L156.475 53.667l-0.875 0.767 0.65 -0.958 5.667 -11.3 -4 -4 -11.3 5.667 -0.958 0.65 0.758 -0.883 8.483 -12.825c-1.5 -1.267 -2.925 -2.425 -4.75 -3.833M45.833 31.542c-3 0.308 -5.317 2.358 -11.608 9.375a158.333 158.333 0 0 0 -6.308 7.617l17.283 16.392c5.725 -6.333 8.05 -8.683 12.567 -13.442 3.192 -3.375 5 -7.25 1.8 -10.975 -1.733 -2.017 -4.65 -2.458 -7.083 -1.458l-0.233 0.083 0.083 -0.217a5.833 5.833 0 0 0 -2.025 -6.117 6 6 0 0 0 -4.475 -1.25zm0.05 5.125c1.133 -0.308 2.308 0.5 2.567 1.667 0.267 1.167 -0.467 2.267 -1.283 3.183 -1.833 2.083 -8.592 9.15 -8.592 9.15l-3.35 -3.192c3.475 -4.25 7.175 -8.117 8.85 -9.65a4.583 4.583 0 0 1 1.808 -1.158M100 40.692a59.283 59.283 0 0 0 -59 53.233v0.017a59.35 59.35 0 0 0 70.967 64.142 59.25 59.25 0 0 0 47.333 -58.083A59.333 59.333 0 0 0 100 40.708zm-46.142 2.017q0.6 -0.008 1.167 0.358c0.733 0.492 1.067 1.333 0.883 2.167 -0.217 0.992 -1.042 1.925 -1.708 2.65l-8.708 9.333 -3.5 -3.333s6.558 -6.933 8.708 -9.158c0.85 -0.883 1.4 -1.417 1.983 -1.708a2.5 2.5 0 0 1 1.167 -0.308zM100 48.483A51.458 51.458 0 0 1 151.517 100H100v51.517A51.458 51.458 0 0 1 48.483 100H100z"/></svg>