<?xml version="1.0" encoding="UTF-8"?>
<svg version="1.1" xmlns="http://www.w3.org/2000/svg" width="1049" height="425">
<path d="M0 0 C346.17 0 692.34 0 1049 0 C1049 140.25 1049 280.5 1049 425 C702.83 425 356.66 425 0 425 C0 284.75 0 144.5 0 0 Z " fill="#FEFEFE" transform="translate(0,0)"/>
<path d="M0 0 C1.78183402 0.9622849 3.58067363 1.8928728 5.37988281 2.82226562 C30.02543648 16.06299197 51.94941066 37.96753495 61.12597656 64.74414062 C68.02521353 88.08779545 66.52957124 114.02852907 55.84082031 135.99414062 C55.52371094 136.64624512 55.20660156 137.29834961 54.87988281 137.97021484 C49.60112387 148.55075057 42.96454408 157.43087489 34.84082031 165.99414062 C34.30207275 166.56656494 33.7633252 167.13898926 33.20825195 167.72875977 C1.85945247 200.13962534 -48.32962266 214.1998432 -92.23168945 215.11816406 C-97.25740545 215.19871993 -102.28253031 215.22504182 -107.30883789 215.234375 C-110.42654938 215.24400128 -113.54357742 215.27506795 -116.66113281 215.30664062 C-166.97834138 215.56986028 -217.64057305 200.93453978 -254.28417969 165.24414062 C-275.84981081 143.55783851 -283.60183633 116.47043909 -283.52539062 86.5546875 C-283.15579263 66.33826369 -274.95646847 49.39053453 -262.15917969 33.99414062 C-261.46179688 33.14464844 -260.76441406 32.29515625 -260.04589844 31.41992188 C-236.85085404 4.40850819 -202.42297835 -10.29210308 -168.55712891 -18.41699219 C-165.7572439 -19.10456322 -162.99418234 -19.90354217 -160.22167969 -20.69335938 C-108.34894211 -32.96747193 -46.82723873 -25.36576474 0 0 Z " fill="#B5B5B5" transform="translate(331.1591796875,117.005859375)"/>
<path d="M0 0 C21.43322731 1.53094481 45.61837417 9.87675521 64.8125 19.4375 C65.7705957 19.91364746 65.7705957 19.91364746 66.74804688 20.39941406 C70.86282542 22.58847625 70.86282542 22.58847625 72 26 C71.99452155 27.4380933 71.94941333 28.87632278 71.875 30.3125 C71.83677289 36.20903225 73.5903272 39.45279814 77.5625 43.8125 C80.40859613 46.10360738 82.46411039 46.17679051 86.0625 46.1875 C88.6875 46.30859375 88.6875 46.30859375 91 47 C92.63623258 49.3876546 93.58450509 51.80397037 94.67578125 54.48046875 C96.93784556 58.78439641 100.49738094 60.49669445 105 62 C106.59838247 62.19947813 108.20423915 62.3474162 109.8125 62.4375 C112.08203125 62.5703125 112.08203125 62.5703125 114 63 C115.39300182 64.95890881 116.72245446 66.9639118 118 69 C122.42259983 71.96341211 126.39451936 73.23280567 131.6875 72.75 C133.9375 72.62109375 133.9375 72.62109375 136 73 C137.88182462 74.85133209 139.18630832 76.81067039 140.625 79.01953125 C142.7126294 82.02642928 144.5089889 82.94610986 148 84 C155.3962273 84.89754525 160.70459739 83.9287099 167 80 C167.66 79.67 168.32 79.34 169 79 C170.27582055 79.59319694 171.52149439 80.25166134 172.75 80.9375 C178.97592251 83.83351258 185.26222278 83.84839982 192 83 C194.95274974 81.82835731 196.75231212 80.24768788 199 78 C201.05882496 77.70251599 203.12233332 77.43718682 205.1875 77.1875 C211.80493441 76.20901846 215.35072648 75.01469056 219.8125 69.9375 C221.15564537 67.90994674 221.15564537 67.90994674 222 65 C222.6290625 64.98582031 223.258125 64.97164063 223.90625 64.95703125 C230.41023096 64.59461062 235.01817588 63.3014361 240 59 C242.32502967 56.06312042 243.77997007 53.88011971 244.6875 50.25 C246 48 246 48 247.91015625 47.3515625 C249.49690473 47.02838501 251.08849813 46.72829648 252.68359375 46.44921875 C257.21223675 45.57098275 260.20166129 43.86306887 263.3125 40.5 C266.24282226 36.15878184 266.33226357 32.0914506 266 27 C265.68058269 25.66326462 265.34900837 24.32931638 265 23 C285.40192126 13.74233484 311.44365283 2 334 2 C335.13677198 27.34580491 324.5850955 46.6733355 308 65 C305.48349069 67.56340079 302.83679248 69.79831032 300 72 C299.49936035 72.39509766 298.9987207 72.79019531 298.48291016 73.19726562 C271.96091441 93.98373544 240.71022096 105.342999 207.63647461 110.55761719 C205.92408648 110.84494447 204.21768509 111.17170699 202.52172852 111.54394531 C192.51445333 113.60149883 182.37245928 113.30044432 172.20336914 113.26074219 C168.96936942 113.25010483 165.73593505 113.26063648 162.50195312 113.2734375 C145.41023139 113.28677455 128.78558849 112.35843183 112.125 108.3125 C111.02841064 108.05049805 109.93182129 107.78849609 108.80200195 107.51855469 C70.4702797 98.10579286 31.29506004 79.51647086 10.078125 44.65234375 C1.55120525 30.03532581 -0.37390121 16.55551471 0 0 Z " fill="#D8D8D8" transform="translate(55,199)"/>
<path d="M0 0 C0.73089844 0.2475 1.46179688 0.495 2.21484375 0.75 C3.10429688 1.04132813 3.99375 1.33265625 4.91015625 1.6328125 C6.51503906 2.18582031 6.51503906 2.18582031 8.15234375 2.75 C17.50405422 5.95915331 26.83535248 9.04924067 36.40234375 11.5625 C37.18794678 11.7692334 37.9735498 11.9759668 38.78295898 12.18896484 C51.83353609 15.54148427 63.94082535 15.91688727 76.87255859 12.08520508 C80.29915865 11.08778073 82.75976784 10.38438084 86.15234375 11.75 C85.72824219 12.1625 85.30414063 12.575 84.8671875 13 C80.97943434 16.82794157 77.27376067 20.75644865 73.73046875 24.90625 C72.42823243 26.42767462 71.07753985 27.90748113 69.71484375 29.375 C67.68022502 32.46762047 67.45745143 34.1211179 68.15234375 37.75 C73.16253063 43.2298919 79.86782032 44.91913627 87.02734375 45.25 C98.1694234 44.84760858 105.33891168 38.14695843 113.75683594 31.57080078 C129.55760515 19.3579333 129.55760515 19.3579333 139.609375 20.125 C150.63513448 22.83486408 159.19405175 31.8491216 167.39648438 39.20019531 C169.86005772 41.37466188 172.40558698 43.43958141 174.96484375 45.5 C179.32460719 49.02902565 183.48474369 52.72969585 187.62890625 56.5078125 C190.20316733 58.79515904 192.84523864 60.96548271 195.52734375 63.125 C200.65774304 67.27576152 205.50415004 71.67193888 210.33984375 76.15625 C213.4209561 78.99772028 216.55753672 81.76526017 219.7265625 84.5078125 C222.13823811 86.60894358 222.13823811 86.60894358 222.52734375 90.5 C222.50124558 94.13417034 222.2224866 94.66324437 219.77734375 97.6875 C216.33056531 100.39568306 213.96737622 101.33770907 209.5 101.2890625 C202.48278907 99.67778944 196.93065965 92.63550976 192.07421875 87.6171875 C187.07976318 82.76485059 181.57250097 77.59170893 175.15234375 74.75 C176.57220965 79.21716284 178.75597716 81.69335762 182.08984375 84.9453125 C182.5705835 85.41943573 183.05132324 85.89355896 183.54663086 86.38204956 C185.07488624 87.88701895 186.61297008 89.38141234 188.15234375 90.875 C189.68992013 92.37743453 191.2252992 93.88202339 192.75805664 95.38937378 C194.14697493 96.75364791 195.54208414 98.11161076 196.9375 99.46923828 C199.15234375 101.75 199.15234375 101.75 201.15234375 104.75 C201.03944052 111.86290323 201.03944052 111.86290323 197.77734375 115.125 C196.91109375 115.66125 196.04484375 116.1975 195.15234375 116.75 C194.16234375 117.41 193.17234375 118.07 192.15234375 118.75 C188.73836012 119.3524677 186.32714667 119.51463466 183.33984375 117.5703125 C181.19681411 115.70409085 179.180563 113.74072276 177.15234375 111.75 C175.57974725 110.29821428 173.99559117 108.85969582 172.41088867 107.42114258 C166.00973382 101.60739007 166.00973382 101.60739007 163.15234375 98.75 C160.58173064 98.10232207 160.58173064 98.10232207 158.15234375 97.75 C162.77577214 103.95029304 167.74821604 109.7045212 173.015625 115.3671875 C175.52383558 118.16427791 177.04532492 119.91168585 177.52734375 123.6875 C177.15234375 126.75 177.15234375 126.75 175.33984375 129.0625 C171.45304133 132.06089044 167.93944707 132.24521758 163.15234375 131.75 C160.83984375 129.8125 160.83984375 129.8125 159.66796875 128.44921875 C157.62728758 126.16134166 155.37231351 124.17054673 153.08984375 122.125 C152.25324219 121.36960937 151.41664063 120.61421875 150.5546875 119.8359375 C146.8374923 116.17046486 146.8374923 116.17046486 142.15234375 114.75 C142.715804 118.4787811 144.18514833 120.08145993 146.90234375 122.625 C150.24982429 125.8639136 153.42409844 128.96565973 156.15234375 132.75 C155.15234375 135.75 155.15234375 135.75 153.08984375 136.9375 C146.20678119 138.84132581 141.71743946 138.00143763 135.62109375 134.625 C135.13640625 134.33625 134.65171875 134.0475 134.15234375 133.75 C134.31734375 133.09 134.48234375 132.43 134.65234375 131.75 C135.90101185 124.25799142 135.47393449 119.05682148 131.15234375 112.75 C126.45607659 107.6064693 121.79720475 106.62985314 115.15234375 105.75 C115.11367188 104.87988281 115.11367188 104.87988281 115.07421875 103.9921875 C114.61622441 97.68435639 113.36918617 93.6800396 108.53125 89.2734375 C103.30474739 85.38344179 99.12322933 85.6008476 92.78125 85.89453125 C90.15234375 85.75 90.15234375 85.75 87.83984375 83.4375 C87.28296875 82.550625 86.72609375 81.66375 86.15234375 80.75 C80.34371661 77.31224108 74.81191369 77.0951255 68.15234375 77.75 C67.03859375 78.1625 65.92484375 78.575 64.77734375 79 C63.91109375 79.2475 63.04484375 79.495 62.15234375 79.75 C59.46484375 77.9375 59.46484375 77.9375 57.15234375 75.75 C52.26436651 74.12067425 46.79655068 73.6801707 41.94140625 75.64453125 C39.82430029 76.83155226 39.82430029 76.83155226 37.15234375 78.75 C36.60449219 78.38648438 36.05664062 78.02296875 35.4921875 77.6484375 C28.10274 72.9624464 20.34247785 69.72409139 12.15234375 66.75 C11.38519043 66.4701123 10.61803711 66.19022461 9.82763672 65.90185547 C-3.77281847 61.0056916 -17.55840714 57.45008931 -31.65893555 54.30322266 C-33.84765625 53.75 -33.84765625 53.75 -35.84765625 52.75 C-35.38814034 46.24657341 -34.21785486 41.2720916 -31.34765625 35.4375 C-30.99018311 34.70112305 -30.63270996 33.96474609 -30.2644043 33.20605469 C-26.52984452 25.75802975 -10.30253284 -1.39400022 0 0 Z " fill="#FEFEFE" transform="translate(92.84765625,139.25)"/>
<path d="M0 0 C26.91878827 11.25632195 52.64938071 10.89768751 79.56518555 -0.04492188 C80.45761963 -0.39748047 81.35005371 -0.75003906 82.26953125 -1.11328125 C83.06206299 -1.43981689 83.85459473 -1.76635254 84.67114258 -2.1027832 C86.875 -2.5625 86.875 -2.5625 89.00561523 -1.79150391 C104.95176401 8.69209449 116.59927845 29.0416087 120.5 47.375 C120.62375 48.055625 120.7475 48.73625 120.875 49.4375 C114.45029085 51.50217314 108.03101903 53.42157796 101.48388672 55.05004883 C92.64877964 57.26211317 84.04478131 59.9589317 75.4375 62.9375 C74.37249268 63.30512451 73.30748535 63.67274902 72.21020508 64.05151367 C65.86227642 66.28218674 59.68492343 68.743736 53.54663086 71.50195312 C50.7494969 72.48144845 48.81208997 72.76232658 45.875 72.4375 C43.3671875 70.56640625 43.3671875 70.56640625 40.75 68 C39.78094284 67.07181464 38.8095266 66.14608686 37.8359375 65.22265625 C37.09875488 64.51906982 37.09875488 64.51906982 36.34667969 63.80126953 C34.11375934 61.73207692 31.75042044 59.83987826 29.375 57.9375 C25.59039666 54.88401321 21.95292463 51.73081699 18.375 48.4375 C13.88039329 44.30143741 9.23780598 40.41565991 4.484375 36.58203125 C2.09116225 34.61515431 -0.21003016 32.58520976 -2.5 30.5 C-19.32796625 15.25681263 -19.32796625 15.25681263 -40.609375 9.91015625 C-51.45881914 11.53757287 -60.45067401 19.14698532 -68.4609375 26.1640625 C-74.94057891 31.69360986 -80.47004437 34.57930539 -89.0625 34.6875 C-90.90134766 34.72617188 -90.90134766 34.72617188 -92.77734375 34.765625 C-96.28708435 34.42161309 -97.61348879 33.82941544 -100.125 31.4375 C-99.61251744 27.29967786 -97.45069018 25.48664415 -94.5 22.6875 C-91.41417449 19.70627874 -88.47237427 16.75286668 -85.75 13.4375 C-75.79299169 1.91815081 -61.99272099 -7.81134832 -46.50390625 -9.3984375 C-29.6275073 -10.56232708 -15.40382292 -6.47660736 0 0 Z " fill="#FEFEFE" transform="translate(267.125,143.5625)"/>
<path d="M0 0 C1.53608957 0.45697058 3.07253927 0.91273264 4.609375 1.3671875 C23.00816645 6.97239605 39.59259008 15.53706136 55 27 C50.6993297 31.3006703 42.78540737 32.35238456 37 34 C35.30037109 34.49113281 35.30037109 34.49113281 33.56640625 34.9921875 C9.81991264 40.97869849 -12.29378051 35.04794533 -34 25.3125 C-52.05467261 17.77959487 -73.62121585 17.40625315 -91.6875 24.8125 C-94.79907446 26.24946156 -97.29469216 27.97274021 -100 30.0625 C-105.47209391 33.88336557 -111.41301546 34.40899809 -117.8671875 35.34375 C-121.20924865 35.83261131 -124.28672144 36.62623369 -127.5 37.6875 C-147.7369273 43.42587456 -177.00527135 35.5320914 -195 26 C-193.65772039 21.97316116 -191.12143338 20.91066172 -187.625 18.875 C-186.95871582 18.48393066 -186.29243164 18.09286133 -185.60595703 17.68994141 C-130.76614486 -13.87608166 -60.01369262 -18.96316438 0 0 Z " fill="#D8D8D8" transform="translate(294,109)"/>
<path d="M0 0 C7.78513757 4.69731118 12.33811972 9.96277293 15.55078125 18.5390625 C16.36893309 22.01360515 16.68487164 25.24768103 16.71191406 28.81323242 C16.72152161 29.8416777 16.73112915 30.87012299 16.74102783 31.92973328 C16.74527771 33.03186661 16.74952759 34.13399994 16.75390625 35.26953125 C16.75960632 36.41513016 16.7653064 37.56072906 16.7711792 38.74104309 C16.78061646 41.16434815 16.78715811 43.58766597 16.79101562 46.01098633 C16.80070015 49.69570668 16.83172794 53.37986407 16.86328125 57.06445312 C16.86981402 59.42447587 16.87506341 61.78450259 16.87890625 64.14453125 C16.89742645 65.78254951 16.89742645 65.78254951 16.9163208 67.45365906 C16.88491699 78.38034039 14.25347465 87.77865735 7.55078125 96.5390625 C-0.85613092 104.80672975 -10.21660884 106.14366898 -21.50268555 106.08764648 C-31.75498206 105.79390242 -38.82820064 102.59096056 -46.01171875 95.2265625 C-49.60723515 91.1671085 -50.9333297 86.64663394 -52.44921875 81.5390625 C-49.05384023 81.39330923 -45.65926973 81.30484708 -42.26171875 81.2265625 C-41.30201172 81.18466797 -40.34230469 81.14277344 -39.35351562 81.09960938 C-32.12150217 80.97448804 -32.12150217 80.97448804 -28.5234375 83.99609375 C-27.83894531 84.83527344 -27.15445313 85.67445313 -26.44921875 86.5390625 C-24.46648481 87.41286057 -24.46648481 87.41286057 -22.44921875 87.5390625 C-21.74023438 87.61769531 -21.03125 87.69632812 -20.30078125 87.77734375 C-14.84074908 87.95934482 -11.66475803 87.35312185 -7.44921875 83.5390625 C-3.7942975 78.37176004 -3.7657004 72.67225862 -3.44921875 66.5390625 C-3.85011719 66.93738281 -4.25101563 67.33570313 -4.6640625 67.74609375 C-10.5396669 73.22199717 -16.36594459 75.56133614 -24.38671875 76.0390625 C-33.53795599 75.68491245 -40.36365484 70.53980094 -46.46875 64.078125 C-55.18381923 52.90495932 -55.25755869 39.95472138 -54.2109375 26.46875 C-52.87451984 17.20832053 -49.02402613 7.43465718 -41.3828125 1.6484375 C-37.92550259 -0.33515041 -34.2790271 -1.42926432 -30.44921875 -2.4609375 C-20.99170866 -5.61344086 -8.8048098 -4.35978134 0 0 Z " fill="#B4B4B4" transform="translate(655.44921875,226.4609375)"/>
<path d="M0 0 C0.06974993 9.73641578 0.12293758 19.47277135 0.15543652 29.20938683 C0.17104052 33.73131561 0.19218167 38.25307247 0.22631836 42.77490234 C0.25910082 47.14508359 0.27689254 51.51510026 0.28463173 55.88539505 C0.29014154 57.54622612 0.30090021 59.20704898 0.31719017 60.8678093 C0.42499147 72.321777 0.35857491 82.87871321 -7.19140625 92.1796875 C-15.42852153 100.47017502 -24.81767177 103.10649797 -36.25 103.25 C-46.86951898 103.15639014 -55.70887841 100.69404755 -63.6875 93.47265625 C-72.54644389 84.06002837 -73.46535647 72.16664953 -73.27734375 59.91796875 C-72.85280186 48.92423475 -68.90370501 39.18936815 -61.3046875 31.22265625 C-53.89934137 24.43165498 -47.53033828 23.43289246 -37.60546875 23.6484375 C-29.95371176 24.39454598 -26.24693235 27.60085289 -21 33 C-20.9906543 32.33468262 -20.98130859 31.66936523 -20.97167969 30.98388672 C-20.91773981 27.94685981 -20.83413938 24.91133421 -20.75 21.875 C-20.73582031 20.82828125 -20.72164062 19.7815625 -20.70703125 18.703125 C-20.51152199 12.5250325 -20.12018854 8.70989537 -16 4 C-11.23586545 -0.45677103 -6.242772 -0.03659304 0 0 Z " fill="#B5B5B5" transform="translate(919,92)"/>
<path d="M0 0 C1.07314453 0.61875 1.07314453 0.61875 2.16796875 1.25 C9.96693834 6.40053902 14.58515755 15.10921254 17 24 C17.4010615 27.26269881 17.42982759 30.46601657 17.375 33.75 C17.36484863 34.62962402 17.35469727 35.50924805 17.34423828 36.41552734 C17.06143921 48.33474101 14.49578357 58.78754548 6.3359375 67.84765625 C-1.06338728 74.72328453 -8.60964518 75.57217014 -18.4296875 75.34765625 C-24.89528216 74.71807428 -28.59365555 72.76629695 -32.7109375 67.8515625 C-33.46632813 66.91054688 -34.22171875 65.96953125 -35 65 C-35.0093457 65.82201904 -35.01869141 66.64403809 -35.02832031 67.4909668 C-35.08207871 71.22374962 -35.16571831 74.95528681 -35.25 78.6875 C-35.27126953 80.62786133 -35.27126953 80.62786133 -35.29296875 82.60742188 C-35.32519531 83.85458984 -35.35742188 85.10175781 -35.390625 86.38671875 C-35.4220459 88.10701294 -35.4220459 88.10701294 -35.45410156 89.86206055 C-36.11007813 93.63275233 -37.31414829 95.31445336 -40 98 C-43.28519475 99.09506492 -45.73663415 99.09960608 -49.1875 99.0625 C-50.27417969 99.05347656 -51.36085938 99.04445313 -52.48046875 99.03515625 C-53.31191406 99.02355469 -54.14335937 99.01195312 -55 99 C-55.13963084 88.9071075 -55.24593885 78.81444851 -55.31087303 68.72078323 C-55.34205418 64.03274425 -55.3842817 59.34537087 -55.45263672 54.65771484 C-55.51830578 50.12537947 -55.55380518 45.59368023 -55.56926346 41.06090546 C-55.58026527 39.3402481 -55.60174763 37.61962165 -55.63438034 35.89923859 C-55.84064663 24.5639001 -55.21292581 14.94279639 -47.22494507 6.01641846 C-35.31253832 -5.27409008 -14.25045055 -8.33664383 0 0 Z " fill="#B4B4B4" transform="translate(505,227)"/>
<path d="M0 0 C7.31509699 5.98507936 12.57234009 14.64999783 14 24 C15.29282855 37.76122724 13.93472738 49.46144793 5.6875 61 C-0.47398838 68.26603165 -8.75158227 72.44777906 -18.2265625 73.28515625 C-28.83799543 73.55573603 -39.94594011 72.82783192 -48.296875 65.65234375 C-48.85890625 65.10707031 -49.4209375 64.56179687 -50 64 C-50.54140625 63.48566406 -51.0828125 62.97132813 -51.640625 62.44140625 C-60.88968104 52.70186997 -62.39193161 40.6992945 -62.27734375 27.7890625 C-61.51075315 17.31592329 -56.2876023 7.62180825 -48.5 0.625 C-34.11899173 -10.74164846 -15.03742334 -8.93905755 0 0 Z " fill="#B4B4B4" transform="translate(987,122)"/>
<path d="M0 0 C8.41145517 6.12426164 13.27728842 15.35346255 15.25 25.4375 C16.83267918 38.45099877 14.75436432 50.70367011 6.875 61.5 C0.89308634 68.44881781 -6.0681862 72.637329 -15.28613281 73.74121094 C-17.92769709 73.87393782 -20.54283925 73.90600057 -23.1875 73.875 C-24.11473877 73.86525146 -25.04197754 73.85550293 -25.99731445 73.84545898 C-36.86066226 73.56283374 -43.5543926 70.61725885 -51.48046875 63.078125 C-61.301684 51.65103119 -61.57169711 38.71173256 -60.75 24.4375 C-59.53009416 15.50644625 -54.50728118 7.54390286 -47.8125 1.5625 C-33.85287869 -8.12376785 -14.75003974 -8.73618126 0 0 Z " fill="#B4B4B4" transform="translate(740.75,228.5625)"/>
<path d="M0 0 C2.63540067 1.99246475 5.15917464 4.01044467 7.6171875 6.22265625 C8.0296875 5.82433594 8.4421875 5.42601563 8.8671875 5.015625 C16.67845018 -2.15051108 23.46238558 -3.35778469 33.91796875 -3.12890625 C40.71949402 -2.48250997 47.11001498 -0.14018622 52.23828125 4.53515625 C57.56283422 11.05132306 60.75066572 18.16180325 60.73071289 26.54199219 C60.73059959 28.13318878 60.73059959 28.13318878 60.73048401 29.75653076 C60.72532272 30.89519592 60.72016144 32.03386108 60.71484375 33.20703125 C60.7134288 34.37776184 60.71201385 35.54849243 60.71055603 36.75469971 C60.7049584 40.49404454 60.6924063 44.23332951 60.6796875 47.97265625 C60.6746722 50.50781164 60.67010934 53.04296796 60.66601562 55.578125 C60.65498973 61.79299182 60.63772669 68.00781388 60.6171875 74.22265625 C54.6771875 74.22265625 48.7371875 74.22265625 42.6171875 74.22265625 C42.5874585 72.05110962 42.5874585 72.05110962 42.55712891 69.83569336 C42.48086757 64.44766295 42.39218171 59.05989536 42.29980469 53.67211914 C42.26159971 51.34339601 42.22673224 49.01461558 42.1953125 46.68579102 C42.14947788 43.33198615 42.09151325 39.9785729 42.03125 36.625 C42.01969879 35.58931381 42.00814758 34.55362762 41.99624634 33.48655701 C41.88660865 28.07638434 41.67456279 23.26763497 39.6171875 18.22265625 C35.03033113 16.15407397 30.60263131 15.67878965 25.6171875 16.22265625 C21.16963725 18.53196119 18.64963572 20.65612342 16.6171875 25.22265625 C16.14469656 28.95493069 16.12842957 32.67107907 16.10546875 36.4296875 C16.08751755 37.51021896 16.06956635 38.59075043 16.05107117 39.70402527 C15.99698487 43.14769617 15.96307705 46.59122857 15.9296875 50.03515625 C15.89651303 52.37306614 15.86202326 54.71095776 15.82617188 57.04882812 C15.74125895 62.77333757 15.67443917 68.49780604 15.6171875 74.22265625 C9.6771875 74.22265625 3.7371875 74.22265625 -2.3828125 74.22265625 C-2.39739502 72.70389893 -2.41197754 71.1851416 -2.42700195 69.62036133 C-2.48499808 63.98258993 -2.5622317 58.34521737 -2.64526367 52.70776367 C-2.67850667 50.26837642 -2.70654051 47.82891237 -2.72924805 45.3894043 C-2.76280467 41.88166593 -2.81512299 38.374631 -2.87109375 34.8671875 C-2.87748367 33.77743118 -2.8838736 32.68767487 -2.89045715 31.56489563 C-2.92641436 24.36800097 -2.92641436 24.36800097 -6.3828125 18.22265625 C-10.40566095 15.51339097 -14.69751283 15.54868767 -19.3828125 16.22265625 C-23.1854154 18.22766505 -25.00072091 19.64951887 -27.3828125 23.22265625 C-27.71024679 25.58495971 -27.71024679 25.58495971 -27.70166016 28.24487305 C-27.72152985 29.2657048 -27.74139954 30.28653656 -27.76187134 31.33830261 C-27.77342255 32.4383815 -27.78497375 33.53846039 -27.796875 34.671875 C-27.81624115 35.79962845 -27.8356073 36.9273819 -27.8555603 38.08930969 C-27.91540557 41.69618128 -27.96176172 45.30308469 -28.0078125 48.91015625 C-28.04598768 51.35352965 -28.08503914 53.79688953 -28.125 56.24023438 C-28.22111136 62.23426535 -28.30512444 68.22835932 -28.3828125 74.22265625 C-34.3228125 74.22265625 -40.2628125 74.22265625 -46.3828125 74.22265625 C-46.45717843 66.82114845 -46.51151754 59.41986 -46.54760742 52.01806641 C-46.56265869 49.50207733 -46.58310431 46.98611433 -46.60913086 44.47021484 C-46.64567432 40.845963 -46.66257603 37.22205925 -46.67578125 33.59765625 C-46.69126511 32.47963623 -46.70674896 31.36161621 -46.72270203 30.2097168 C-46.72480163 20.38318915 -44.60646664 12.75498086 -37.6640625 5.40234375 C-28.33146126 -3.44881377 -11.53347099 -7.15075201 0 0 Z " fill="#B5B5B5" transform="translate(496.3828125,118.77734375)"/>
<path d="M0 0 C0.67160156 0.39960937 1.34320312 0.79921875 2.03515625 1.2109375 C8.80477931 6.120774 13.01964359 15.07857435 15 23 C15 28.61 15 34.22 15 40 C-2.82 40 -20.64 40 -39 40 C-37.21016347 47.8480815 -37.21016347 47.8480815 -33 54 C-26.64535003 57.73802939 -20.63170545 57.87429946 -13.625 56.1875 C-11.00217181 55.21979889 -11.00217181 55.21979889 -9.64135742 53.4440918 C-7.41039041 51.48125231 -6.05028817 51.65363112 -3.11328125 51.70703125 C-1.7065918 51.7215332 -1.7065918 51.7215332 -0.27148438 51.73632812 C0.70498047 51.76146484 1.68144531 51.78660156 2.6875 51.8125 C3.67556641 51.82603516 4.66363281 51.83957031 5.68164062 51.85351562 C8.12164231 51.88887797 10.56054719 51.93822967 13 52 C11.77561954 58.87602389 8.13775441 63.56009871 2.62890625 67.84375 C-7.74191893 74.44483685 -19.52206915 75.68590997 -31.61328125 73.53515625 C-40.27337501 70.93558992 -49.22875785 65.86731464 -54 58 C-59.50543474 45.85617932 -61.59579113 31.13701154 -57.0390625 18.33984375 C-52.26462447 7.58838366 -46.00328899 0.42400279 -35 -4 C-23.59614902 -7.25161635 -10.12552182 -6.05911226 0 0 Z " fill="#B4B4B4" transform="translate(624,121)"/>
<path d="M0 0 C0.98226562 0.00161133 1.96453125 0.00322266 2.9765625 0.00488281 C10.06232028 0.12486078 16.0116777 0.93166637 22.3125 4.375 C24.0140625 5.24125 24.0140625 5.24125 25.75 6.125 C29.55870933 9.46923258 31.83553541 13.5281979 32.68063354 18.57223511 C32.82068693 20.92088904 32.84140678 23.23729242 32.80859375 25.58984375 C32.81004898 26.4450209 32.81150421 27.30019806 32.81300354 28.18128967 C32.81135336 29.97888618 32.79989164 31.77649813 32.77905273 33.57397461 C32.75011256 36.30189041 32.75845995 39.02785594 32.77148438 41.75585938 C32.76524486 43.51303014 32.75685225 45.27019484 32.74609375 47.02734375 C32.74902939 47.83074692 32.75196503 48.63415009 32.75498962 49.4618988 C32.63418111 56.83687712 31.12127608 64.45326667 25.94140625 70.03515625 C14.83661884 79.16930993 0.16514284 80.39256698 -13.60009766 79.59082031 C-17.87373433 79.14896127 -21.18410762 77.79798112 -24.6875 75.375 C-25.26628906 75.01277344 -25.84507812 74.65054688 -26.44140625 74.27734375 C-30.75013873 71.21450982 -32.6882513 67.42811129 -33.6875 62.375 C-34.7017456 54.36348425 -34.19776007 48.18435143 -29.50390625 41.46484375 C-22.62842651 33.55434556 -12.67519177 32.03044725 -2.65625 30.890625 C-1.64896851 30.77400513 -1.64896851 30.77400513 -0.62133789 30.6550293 C1.28275521 30.44755138 3.19022444 30.27178696 5.09765625 30.09765625 C8.75925974 29.27457406 10.09354965 28.36289354 12.3125 25.375 C12.72392752 22.2595108 12.72392752 22.2595108 11.3125 19.375 C6.21698974 16.19030609 1.24354094 15.5834513 -4.6875 16.375 C-7.63457246 17.2594609 -7.63457246 17.2594609 -9.6875 19.375 C-10.6775 21.685 -11.6675 23.995 -12.6875 26.375 C-18.9575 26.375 -25.2275 26.375 -31.6875 26.375 C-30.57892585 18.61498097 -29.38155053 12.06905053 -23.6875 6.375 C-16.21555747 1.14464023 -8.97006608 -0.01513169 0 0 Z " fill="#B5B5B5" transform="translate(807.6875,115.625)"/>
<path d="M0 0 C4.83993201 3.55586842 8.32594479 9.1611335 9.37744141 15.14959717 C9.52397989 17.42917686 9.55494807 19.67681508 9.53125 21.9609375 C9.53699036 23.20685165 9.53699036 23.20685165 9.54284668 24.47793579 C9.54555212 26.22423524 9.53828739 27.97057617 9.52148438 29.71679688 C9.50010817 32.36161624 9.521303 35.00370287 9.546875 37.6484375 C9.56495137 47.69427581 9.35337891 56.29319438 3.02734375 64.5859375 C-8.46860569 74.42732973 -21.29937269 75.66356998 -36 75 C-43.01769398 74.11154195 -49.18305213 71.32381478 -53.875 66 C-58.4231264 59.57911566 -57.57652707 51.57605297 -57 44 C-55.42940945 38.57024409 -51.52194773 35.1919631 -47 32 C-40.07856733 28.47106981 -32.89149641 27.67121735 -25.2734375 26.5390625 C-18.11250903 25.57343569 -18.11250903 25.57343569 -12 22 C-11.58274322 18.37400578 -11.58274322 18.37400578 -12 15 C-17.36112376 12.31943812 -20.99426726 11.42802545 -27 12 C-32.84168936 13.98396997 -33.01756544 15.03513087 -36 21 C-42.27 21 -48.54 21 -55 21 C-53.99275334 11.93478009 -52.78205854 7.49754247 -46.29296875 1.39453125 C-34.38663535 -7.77038904 -12.94678213 -6.23818096 0 0 Z " fill="#B5B5B5" transform="translate(585,228)"/>
<path d="M0 0 C5.55431236 3.96877284 9.26769364 9.37204524 11 16 C11.06024162 18.33255555 11.07076032 20.66773985 11 23 C7.77206203 23.23329086 4.54628768 23.37467674 1.3125 23.5 C0.40048828 23.56703125 -0.51152344 23.6340625 -1.45117188 23.703125 C-4.17990716 23.78250639 -6.3715432 23.75243589 -9 23 C-10.83447315 21.0946628 -11.90245096 19.30400726 -13.04907227 16.92773438 C-14.49007721 14.00650843 -15.96765633 13.10267043 -19 12 C-23.74666088 11.21187517 -27.70964982 11.3871055 -31.875 13.9375 C-36.26492336 17.69260434 -37.59371903 22.77059565 -38.29980469 28.38305664 C-38.43528356 30.78385112 -38.45894936 33.15822174 -38.4375 35.5625 C-38.45748047 36.36107422 -38.47746094 37.15964844 -38.49804688 37.98242188 C-38.49256157 44.71288597 -36.8156936 50.03796058 -32.12109375 54.9765625 C-29.32415879 56.32609649 -27.16060114 56.39844087 -24.0625 56.375 C-23.04285156 56.38273437 -22.02320313 56.39046875 -20.97265625 56.3984375 C-17.38055565 55.91697329 -15.73313907 55.41404161 -13 53 C-12.01 50.03 -11.02 47.06 -10 44 C-3.07 44 3.86 44 11 44 C9.91038273 53.80655547 7.91838671 59.47640018 0.6640625 66.1484375 C-10.22202726 74.28724909 -21.45497995 75.17682221 -34.625 73.375 C-43.06126629 71.6220096 -49.91626313 67.37441751 -54.75390625 60.20703125 C-61.62730793 48.033138 -62.63649007 34.32092095 -59.8125 20.73046875 C-56.93865693 11.07269804 -51.48923107 3.85814284 -42.8515625 -1.27734375 C-30.11913479 -7.92755228 -12.33395694 -7.20697188 0 0 Z " fill="#B5B5B5" transform="translate(756,121)"/>
<path d="M0 0 C3.2437025 2.43277687 4.68700289 3.91654848 5.8125 7.8125 C5.874375 8.534375 5.93625 9.25625 6 10 C6.7425 9.05125 7.485 8.1025 8.25 7.125 C11.40063293 3.39352413 13.35235613 2.1554381 18.3125 1.6875 C22.59103911 2.05008806 25.30370296 2.7964383 29 5 C30.81947994 7.77743934 32 10.62721016 32 14 C33.4540625 12.9790625 33.4540625 12.9790625 34.9375 11.9375 C38.77226597 9.75176118 41.6110999 9.66664111 45.9140625 10.37890625 C48.92796761 11.27630496 50.82983752 12.76201995 53 15 C55.37905675 19.7581135 54.33431286 26.99632677 53 32 C53.680625 31.835 54.36125 31.67 55.0625 31.5 C59.58992097 30.72937515 63.41333071 30.29891357 67.6875 32.1875 C71.25687796 34.98512057 73.65159711 36.88700097 74.421875 41.55859375 C74.64639474 46.15501179 74.70016536 49.85424262 71.75 53.5625 C67.45691445 57.36773492 64.94272925 58.48164048 59.02734375 58.31640625 C54.5613577 57.61940265 51.80107702 55.07731048 49.1875 51.5625 C48.00668998 49.01443628 47.39605699 46.77239893 47 44 C44.83125748 44.50603992 43.00032373 44.99983813 41 46 C36.38979651 46.38418362 33.87413954 46.38850646 29.625 44.5 C26.09110009 41.13438104 25.79271848 38.7563109 25 34 C23.989375 34.350625 22.97875 34.70125 21.9375 35.0625 C18.00493681 36.16679552 14.99782194 36.03647236 11 35 C7.51140725 32.75179578 5.52597133 30.83887854 4 27 C3.8046875 24.421875 3.8046875 24.421875 3.875 21.75 C3.89304688 20.85796875 3.91109375 19.9659375 3.9296875 19.046875 C3.95289063 18.37140625 3.97609375 17.6959375 4 17 C3.34 17.495 2.68 17.99 2 18.5 C-1.73096177 20.36548089 -4.94581972 20.8710153 -9 20 C-12.01784991 18.24392354 -14.41468217 16.17063565 -16 13 C-16.67660495 7.13609041 -16.67660495 7.13609041 -14.953125 4.2421875 C-10.31594775 -1.40425773 -6.84750131 -1.72665836 0 0 Z " fill="#FEFEFE" transform="translate(148,220)"/>
<path d="M0 0 C0 6.6 0 13.2 0 20 C-3.031875 20.12375 -3.031875 20.12375 -6.125 20.25 C-13.00110258 20.78065574 -16.23006476 21.84800473 -20.8125 27.0625 C-22.74321307 30.2126108 -23.13452296 32.86067082 -23.20532227 36.47143555 C-23.22526749 37.37214279 -23.24521271 38.27285004 -23.26576233 39.20085144 C-23.29083107 40.65410576 -23.29083107 40.65410576 -23.31640625 42.13671875 C-23.33718735 43.13129593 -23.35796844 44.12587311 -23.37937927 45.15058899 C-23.44479412 48.32948867 -23.5037224 51.50847134 -23.5625 54.6875 C-23.60569288 56.84180548 -23.64930742 58.99610254 -23.69335938 61.15039062 C-23.80126123 66.43350991 -23.90039491 71.71669167 -24 77 C-30.6 77 -37.2 77 -44 77 C-44.06916623 70.63158361 -44.12881202 64.26448989 -44.16479492 57.89599609 C-44.17980768 55.73319055 -44.20022416 53.57041507 -44.22631836 51.40771484 C-44.26303366 48.28475489 -44.27980196 45.1622002 -44.29296875 42.0390625 C-44.30845261 41.08448151 -44.32393646 40.12990051 -44.33988953 39.14639282 C-44.34254423 28.36559013 -41.52125337 18.66413238 -33.88671875 10.83203125 C-23.36715417 1.12574393 -14.11391765 0 0 0 Z " fill="#B5B5B5" transform="translate(692,116)"/>
<path d="M0 0 C6.07344424 5.35041516 8.15063165 10.16632213 8.8828125 18.109375 C9.18833995 25.97161483 8.06683717 33.55093999 3.3515625 40.07421875 C0.50749507 43.08203552 -1.97409696 44.18918819 -6.08203125 44.55078125 C-10.81160488 44.66381509 -14.43311311 44.72350519 -18.8125 42.8125 C-25.3923429 36.39314108 -27.47711953 30.21565075 -27.6875 21.125 C-27.61712938 14.22086044 -26.54500306 7.98258375 -21.9140625 2.62109375 C-15.93375097 -2.70654419 -7.08423271 -3.54211636 0 0 Z " fill="#FDFDFD" transform="translate(972.375,133.6875)"/>
<path d="M0 0 C4.30869723 3.05967799 7.30520901 5.85457399 8.875 11 C9.96190243 19.60181378 10.34916879 30.29448709 5.875 38 C2.65337735 41.88246833 -0.39319937 44.65289002 -5.4921875 45.30078125 C-12.52491571 45.33364447 -16.64091635 44.37117075 -21.875 39.375 C-27.38134754 32.115828 -26.9335192 21.64416827 -26.125 13 C-24.62514499 7.27622898 -22.32028942 3.09243418 -17.125 0 C-11.13084372 -2.6061549 -5.81574249 -3.2467585 0 0 Z " fill="#FEFEFE" transform="translate(726.125,241)"/>
<path d="M0 0 C6.35830481 3.74916679 8.68142833 8.05005788 10.73828125 15.05859375 C11.61887381 24.17329857 10.89573411 32.2714878 5.80078125 39.99609375 C1.96202691 43.83484809 -1.25874682 44.3895372 -6.63671875 44.49609375 C-13.79745461 44.36765006 -13.79745461 44.36765006 -16.88671875 41.99609375 C-22.03217073 35.63198209 -22.76475335 30.06269609 -22.69921875 22.12109375 C-22.71919922 21.26580078 -22.73917969 20.41050781 -22.75976562 19.52929688 C-22.75427051 12.3252039 -20.85672349 7.12541753 -16.19921875 1.62109375 C-11.71246545 -1.99725568 -5.2112915 -2.16912133 0 0 Z " fill="#FDFDFD" transform="translate(889.26171875,133.94140625)"/>
<path d="M0 0 C5.50287131 2.27292511 8.14534791 6.29069583 10.75 11.5 C13.71533298 20.19940229 12.63979824 29.3726285 9.21484375 37.74609375 C7.22054186 41.44613294 4.6617145 43.16914275 1 45 C-1.09948601 45.17471848 -3.20624408 45.26717852 -5.3125 45.3125 C-6.44300781 45.34988281 -7.57351563 45.38726562 -8.73828125 45.42578125 C-12.68796068 44.91019435 -14.23173666 43.8176085 -17 41 C-18.109375 39 -18.109375 39 -18.75 37 C-18.97171875 36.34 -19.1934375 35.68 -19.421875 35 C-19.61265625 34.34 -19.8034375 33.68 -20 33 C-20.18433594 32.3709375 -20.36867188 31.741875 -20.55859375 31.09375 C-22.44546032 22.14365722 -20.9520004 13.17085613 -17 5 C-11.81000407 -0.31356727 -7.14946562 -0.62120159 0 0 Z " fill="#FDFDFD" transform="translate(641,240)"/>
<path d="M0 0 C5.26050172 2.67987823 8.85299862 6.1737556 11.0859375 11.67578125 C12.11838365 15.43053199 12.38420101 18.94623569 12.375 22.8125 C12.37258301 23.86872559 12.37258301 23.86872559 12.37011719 24.94628906 C12.20195333 32.10479356 10.44711836 37.03379593 5.9375 42.5 C1.33728084 46.06146 -4.46456924 45.43893284 -10 45 C-14.64292219 43.22185959 -16.60945667 40.28649149 -19 36 C-22.40539749 27.65677615 -22.30003215 17.33294028 -19.0546875 8.94140625 C-14.80974547 1.12756852 -8.47341758 -1.04466792 0 0 Z " fill="#FDFDFD" transform="translate(490,240)"/>
<path d="M0 0 C0.75386779 13.92561338 0.75386779 13.92561338 -4 20 C-8.48750049 24.20703171 -13.64265588 24.4236683 -19.58203125 24.3359375 C-22 24 -22 24 -25.125 22 C-27.19945581 18.6808707 -27.75880633 16.77627905 -27.46875 12.92578125 C-26.6011964 9.36158186 -24.96258078 8.07380655 -22 6 C-16.4828322 3.78928816 -10.62249894 2.61243728 -4.8125 1.4296875 C-3.13119642 1.0311026 -1.69458633 0 0 0 Z " fill="#FDFDFD" transform="translate(574,264)"/>
<path d="M0 0 C0.35637908 6.44122183 0.40388144 12.32686427 -3 18 C-6.28747031 21.61082804 -9.61475608 23.77786278 -14.55859375 24.23828125 C-22.15166461 24.43403206 -22.15166461 24.43403206 -25.6875 22.625 C-27.69839107 18.60321786 -28.12785477 14.37131291 -27 10 C-23.06274833 5.69412118 -18.27506209 4.66833145 -12.8125 3.3125 C-11.19361553 2.89344965 -9.57510642 2.47294572 -7.95703125 2.05078125 C-7.24522705 1.87200439 -6.53342285 1.69322754 -5.80004883 1.5090332 C-0.46378897 0 -0.46378897 0 0 0 Z " fill="#FDFDFD" transform="translate(821,156)"/>
<path d="M0 0 C3.8163461 2.20173813 5.83883543 4.18733654 8.25 7.875 C8.745 11.34 8.745 11.34 9.25 14.875 C-1.97 14.875 -13.19 14.875 -24.75 14.875 C-23.47112542 8.48062712 -21.35715789 3.77111483 -16 -0.125 C-10.32444159 -1.87132566 -5.67466147 -1.70239844 0 0 Z " fill="#FCFCFC" transform="translate(609.75,133.125)"/>
</svg>
